<svg xmlns="http://www.w3.org/2000/svg" height="40px" viewBox="0 -960 960 960" width="40px" fill="#75FB4C"><path d="M480.67-28.67 346-160H160v-186L26.67-480 160-614v-186h186l134.67-133.33L614-800h186v186l133.33 134L800-346v186H614L480.67-28.67ZM619.83-341.5q57.5-57.5 57.5-139.17 0-81.66-57.5-139.16t-139.16-57.5q-81.67 0-139.17 57.5-57.5 57.5-57.5 139.16 0 81.67 57.5 139.17Q399-284 480.67-284q81.66 0 139.16-57.5Zm-231.5-46.83q-37.66-37.67-37.66-92.34 0-54.66 37.66-92.33 37.67-37.67 92.34-37.67 54.66 0 92.33 37.67t37.67 92.33q0 54.67-37.67 92.34-37.67 37.66-92.33 37.66-54.67 0-92.34-37.66ZM480.67-122 586-226.67h147.33V-374l106-106-106-106v-147.33H586l-105.33-106-106.67 106H226.67V-586l-106 106 106 106v147.33h146.66L480.67-122Zm0-358.67Z"/></svg>